<svg version="1.0" xmlns="http://www.w3.org/2000/svg" viewBox="0 0 1024 154"><path d="M9 78v66h39c24.2 0 40.9-.4 44.2-1.1 14.9-3.1 31.5-16 39-30.4 6.5-12.6 8.3-20.2 8.2-35 0-11.3-.4-14.1-2.7-21-7.4-22.2-24.5-38.8-44.4-43-5.2-1.1-15.7-1.5-45-1.5H9v66zm83.6-58.6c19.2 5.1 34.9 22.5 40 44.1 2.2 9.3 1.4 26.6-1.5 34.8-6.8 19.4-19.5 32.6-35.9 37.7-5.9 1.8-9.3 2-43.3 2H15V18h36.3c27.4 0 37.4.4 41.3 1.4z"/><path d="M20 78.5V133h32c19.6 0 33.9-.4 37.2-1.1 18.1-3.8 33-20 37.3-40.4 5.1-24.3-4.9-49.9-23.8-61.3-9.6-5.8-12.6-6.2-49.4-6.2H20v54.5zm77.7-44.6c15 8.1 24.3 25.2 24.3 44.6 0 19.7-10 37.5-25.5 45.1l-6 2.9-32.2.3-32.3.3V29.9l32.8.3 32.7.3 6.2 3.4z"/><path d="M32 78v43.1l28.8-.3c33.1-.3 34.2-.6 43.1-9.7 16.9-17.3 16.9-47.7.1-65.5-3-3.2-7.3-6.4-10.3-7.7-5-2.3-6.3-2.4-33.4-2.7L32 34.9V78zm57.1-35.8c8.2 2.7 15.5 10.6 19.1 20.5 3.1 8.4 3.1 23.5-.1 31.6-3.2 8.1-8.9 14.9-15.2 18.1-5.3 2.6-5.3 2.6-30.1 2.6H38V41h23.9c15.4 0 25 .4 27.2 1.2z"/><path d="M43 78.5V110h20.3c11.1 0 21.9-.5 24-1.1 5-1.4 11.2-7.7 14.5-14.8 2.4-4.9 2.7-6.9 2.7-15.6s-.4-10.7-2.6-15.5c-3.4-7.3-7.4-11.9-12.4-14.1C86 47.3 82.7 47 64.3 47H43v31.5zm49.1-20.7c5.3 6.1 7.2 12.5 6.7 22.6-.5 9.6-4.1 17.6-9.7 21.3-3.2 2.2-4.3 2.3-21.7 2.3H49V52.9l19.6.3 19.6.3 3.9 4.3zm344-44.1c-1.1 2.2-50.2 126.1-50.8 128.6-.4 1.3.1 1.7 2 1.7 1.3 0 2.9-.6 3.4-1.3.5-.6 11.2-27.3 23.8-59.2 12.5-31.9 23.3-59.1 24-60.4 1.3-2.6-.4-6.6 36 85.9 7.1 17.9 13.3 33.1 13.8 33.7.5.7 2.1 1.3 3.4 1.3 1.9 0 2.4-.4 2-1.8-.7-2.5-49.7-126.4-50.8-128.5-.6-.9-2.1-1.7-3.4-1.7-1.3 0-2.8.8-3.4 1.7zm12.9-1c0 .8 49.9 127.2 51.1 129.5 1 1.9 5.9 2.5 5.9.8 0-1.4-50.1-128.3-51.3-129.8-1-1.2-5.7-1.7-5.7-.5zm12.7 0c-.2.5 11.1 30 25.3 65.8 24.4 61.7 25.9 65 28.4 65.3 1.7.2 2.6-.1 2.6-1.1 0-.7-8.7-23.4-19.4-50.3-10.6-26.9-22.1-56-25.5-64.7-5.6-14.1-6.5-15.7-8.6-15.7-1.3 0-2.6.3-2.8.7zm12.3.5c0 .8 5.3 14.9 11.8 31.4 6.6 16.4 18.1 45.5 25.6 64.7 12.7 31.9 14 34.7 16.1 34.7 1.3 0 2.6-.3 2.8-.7.3-.5-11.1-30.1-25.3-65.8-24.5-61.8-25.8-65-28.4-65.3-1.7-.2-2.6.1-2.6 1zM541 78v66h6V18h38.4c34.9 0 39 .2 44.5 1.9 12 3.7 20.5 11.1 26.2 22.6 9.5 19.5.3 44.9-20 54.8l-6.6 3.2-22.7.3-22.8.3v5.9h20.9l3.6 11.7c8.3 27.1 7.6 25.3 10.7 25.3 1.5 0 2.8-.3 2.8-.6 0-.5-9.8-32.7-10.7-35.1-.3-.8.4-1.3 2-1.3 2.4 0 2.9.9 8.6 18.2 5.9 18.1 6 18.3 9 18.6 1.7.2 3.1.2 3.1 0s-2.7-8.4-6-18.3c-3.3-9.8-5.9-17.9-5.7-18.1.1-.1 1.2-.4 2.3-.8 2-.6 2.5.4 6.8 12.6 2.5 7.3 5.4 15.8 6.4 18.8 1.7 5 2.2 5.5 5 5.8l3.2.3-6.5-19.1c-3.6-10.5-6.3-19.5-6-20 .4-.6 1.4-1 2.4-1 1.5 0 3.2 3.8 8.7 20l6.9 20h6.4l-7.5-21.7c-6.8-19.9-7.3-21.8-5.7-22.6 1-.5 4.4-3.6 7.6-6.9 10.3-10.4 15.2-26 12.8-40.5-3.3-19.5-19.2-35.7-38.5-39.2-3.7-.7-21.5-1.1-45.8-1.1H541v66zm239.1-64.3c-1.1 2.2-50.2 126.1-50.8 128.6-.4 1.3.1 1.7 2 1.7 1.3 0 2.9-.6 3.4-1.3.5-.6 11.2-27.3 23.8-59.2 12.5-31.9 23.3-59.1 24-60.4 1.3-2.6-.4-6.6 36 85.9 7.1 17.9 13.3 33.1 13.8 33.7.5.7 2.1 1.3 3.4 1.3 1.9 0 2.4-.4 2-1.8-.7-2.5-49.7-126.4-50.8-128.5-.6-.9-2.1-1.7-3.4-1.7-1.3 0-2.8.8-3.4 1.7zm12.9-1c0 .8 49.9 127.2 51.1 129.5 1 1.9 5.9 2.5 5.9.8 0-1.4-50.1-128.3-51.3-129.8-1-1.2-5.7-1.7-5.7-.5zm12.7 0c-.2.5 11.1 30 25.3 65.8 24.4 61.7 25.9 65 28.4 65.3 1.7.2 2.6-.1 2.6-1.1 0-.7-8.7-23.4-19.4-50.3-10.6-26.9-22.1-56-25.5-64.7-5.6-14.1-6.5-15.7-8.6-15.7-1.3 0-2.6.3-2.8.7zm12.3.5c0 .8 5.3 14.9 11.8 31.4 6.6 16.4 18.1 45.5 25.6 64.7 12.7 31.9 14 34.7 16.1 34.7 1.3 0 2.6-.3 2.8-.7.3-.5-11.1-30.1-25.3-65.8-24.5-61.8-25.8-65-28.4-65.3-1.7-.2-2.6.1-2.6 1zM167.8 58.6l-.3 45.6-3.3 2.9c-2.9 2.6-4 2.9-9.8 2.9h-6.5l.3 2.7c.3 2.6.7 2.8 5.3 3.1 10 .7 17.3-4 19.4-12.3.7-2.9 1.1-19.5 1.1-47.4V13h-5.9l-.3 45.6z"/><path d="M179 58.5c0 49.2 0 48.7-5.5 55.3-4.2 5-8.1 6.6-17 7.2-7.9.5-8 .5-8.3 3.4l-.4 2.9 8.9-.5c10.6-.5 15.2-2.6 21.2-9.4 7-8 7.1-8.8 7.1-59.6V13h-6v45.5z"/><path d="m190.8 60.4-.3 47.3-3.5 6.9c-6.4 12.4-16.7 18.4-31.7 18.4h-7.4l.3 2.8.3 2.7 8.6-.1c17.6-.2 30.3-8.9 37.1-25.4 2.2-5.4 2.3-6.4 2.6-52.8l.3-47.2h-6l-.3 47.4z"/><path d="M202 59.4c0 52.6-.1 53.6-8.1 65.6-8.1 12-19.1 17.9-35.4 18.9-10 .6-10 .6-10.3 3.3l-.3 2.8h7.5c9.9 0 16.7-1.5 24.6-5.5 11.9-6.1 19.7-14.8 24.8-28.1l2.7-6.9.3-48.3.3-48.2H202v46.4zm38 19.1V144h6V24.5l22.6 42.7c21.9 41.4 22.7 42.8 25.5 42.8 1.6 0 2.9-.3 2.9-.6s-11.4-22.1-25.2-48.5L246.5 13H240v65.5zm21.4-49.3c41 78.3 42.1 80.3 45.6 80.6 1.9.2 3.1-.1 2.9-.7-.2-.5-11.6-22.4-25.4-48.5l-25-47.6h-6.6l8.5 16.2zm12.3-1.5C278 35.9 289.3 57.6 299 76l17.5 33.5h6.8L345.7 67 368 24.5V144h6V13h-6.5L344 58c-12.9 24.7-23.7 45-24 45-.3 0-11.1-20.3-24-45l-23.5-45H266l7.7 14.7z"/><path d="M337.7 21.2c-2.5 4.6-9.9 18.6-16.6 31.1L309 75.1l1.6 3c.8 1.7 1.7 2.9 1.8 2.7.8-.9 35.6-66.6 35.6-67.2 0-.3-1.3-.6-2.9-.6-2.7 0-3.4.8-7.4 8.2zm13 0c-2.5 4.6-11.3 21.3-19.7 37.2-14.6 27.7-15.1 28.9-13.9 31.8 1.2 2.8 1.3 2.9 2.6 1.2.9-1.3 31.5-59.2 40.5-76.7.7-1.4.4-1.7-2.1-1.7-2.7 0-3.4.8-7.4 8.2zM678 78.5V144h6V13h-6v65.5zm11 0V144h6V13h-6v65.5zm12 0V144h6V13h-6v65.5zm11 0V144h6V13h-6v65.5zm173 0V144h6l.2-60.2.3-60.3 37 60.3 37 60.2h3.4c3.2 0 3.3-.1 1.9-2.3-.8-1.2-18.9-30.7-40.2-65.5L891.8 13H885v65.5zm14-64.8c.1.4 18 29.8 39.9 65.3l39.7 64.5 3.7.3 3.6.3-30.1-48.8c-16.5-26.8-34.7-56.2-40.3-65.3-9.4-15.3-10.4-16.5-13.3-16.8-1.8-.2-3.2 0-3.2.5zm19.3 9.5c3.5 5.7 21.6 35.2 40.1 65.6l33.9 55.2h6.8l-3.4-5.3c-1.8-2.8-19.9-32.3-40.2-65.5L918.7 13H912l6.3 10.2zm7.7-9.7c0 .4 17.8 29.9 39.6 65.6l39.7 64.9h6.7V13h-6l-.2 60.2-.3 60.3-36.6-60c-35-57.4-36.8-60-39.8-60.3-1.7-.2-3.1 0-3.1.3z"/><path d="M972 42.2v29.3l3 4.5 3 4.5V13h-6v29.2zm12 9.4v38.5l2.6 4.5c1.4 2.4 2.8 4.4 3 4.4.2 0 .4-19.4.4-43V13h-6v38.6zm11 9.4v48l3 4.8 3 4.7V13h-6v48zM552 84v60h6V30h32.8c37.1 0 38.8.3 46.7 7.2 6.9 6.1 9.7 11.6 10.3 20.3.7 10.4-1.6 16.4-8.7 23.5-8.2 8.1-11.6 9-35.7 9H584v6.2l21.3-.4 21.2-.3 6.6-3.2c7.9-3.9 14-10.2 17.7-18.1 2.2-4.8 2.7-7.1 2.7-14.7 0-7.5-.4-9.8-2.4-13.8-3.7-7.5-10.4-14.2-17.9-17.9l-6.7-3.3-37.2-.3-37.3-.3V84zM425.5 71.1c-8.1 20.6-17.8 45-21.5 54.4-3.8 9.3-6.6 17.3-6.3 17.7.7 1.2 4 .9 5.1-.5 1.1-1.4 40.2-100 40.2-101.5 0-.5-.6-2.4-1.4-4.2-1.3-3.3-1.4-3.1-16.1 34.1zm344 0c-8.1 20.6-17.8 45-21.5 54.4-3.8 9.3-6.6 17.3-6.3 17.7.7 1.2 4 .9 5.1-.5 1.1-1.4 40.2-100 40.2-101.5 0-.5-.6-2.4-1.4-4.2-1.3-3.3-1.4-3.1-16.1 34.1z"/><path d="M564 89.4V144h6V40.9l27.4.3 27.4.3 3.8 3.1c5.5 4.4 7.6 7.6 8.1 12.7.7 5.5-1.1 11.3-4.6 15.1-4.7 5.1-7.3 5.6-28.6 5.6H584v6h19.8c17.7 0 20.2-.3 24.2-2.1 8.2-3.7 12.1-8.7 14.1-17.9 2.2-10.1-3.3-20.9-13.5-26.3-3.9-2.1-5.4-2.2-34.3-2.5l-30.3-.3v54.5zm332 1.8V144h6V48l-3-4.8-3-4.7v52.7zM359.5 48l-2.5 4.9V144h6V93.5c0-27.8-.2-50.5-.5-50.5-.2 0-1.6 2.2-3 5zM251 94v50h6V53.9l-2.5-4.9c-1.4-2.8-2.8-5-3-5-.3 0-.5 22.5-.5 50z"/><path d="M575 95.5V144h6V53h20.3c22.9 0 23.7.2 23.7 7.3 0 6.2-1.7 6.7-22.7 6.7H584v6.2l19.8-.4c21.6-.3 23-.7 25.7-6.4 2-4.4 1.9-9.3-.5-13.1-3.6-5.9-5.4-6.3-31-6.3h-23v48.5zm-146.8-.3c-10 25.4-18.2 46.9-18.2 47.6 0 .8 1 1.2 2.6 1 2.6-.3 3.6-2.6 19.5-42.8 9.2-23.4 16.8-43.4 16.8-44.5 0-1.1-.5-3.3-1.2-4.8-1.2-2.7-2.2-.4-19.5 43.5zm344 0c-10 25.4-18.2 46.9-18.2 47.6 0 .8 1 1.2 2.6 1 2.6-.3 3.6-2.6 19.5-42.8 9.2-23.4 16.8-43.4 16.8-44.5 0-1.1-.5-3.3-1.2-4.8-1.2-2.7-2.2-.4-19.5 43.5zm135.8 5.5V144h6V67.5l-3-5-3-5v43.2zm-645 3.5V144h6v-34.3l-.1-34.2L266 70l-2.9-5.5-.1 39.7zm85.6-34.6-2.6 4.7V144h6v-39.5c0-21.7-.2-39.5-.4-39.5s-1.6 2.1-3 4.6zm88.6 33.7c-8.4 21.3-15.2 39.2-15.2 39.8 0 .6 1.2.9 2.7.7 2.6-.3 3.4-1.9 16.5-34.8 7.5-19 13.7-35.4 13.7-36.5 0-1.1-.5-3.3-1.2-4.9-1.2-2.8-1.9-1.2-16.5 35.7zm344 0c-8.4 21.3-15.2 39.2-15.2 39.8 0 .6 1.2.9 2.7.7 2.6-.3 3.4-1.9 16.5-34.8 7.5-19 13.7-35.4 13.7-36.5 0-1.1-.5-3.3-1.2-4.9-1.2-2.8-1.9-1.2-16.5 35.7zm137.8 7.2V144h6V85.7l-2.5-4.4c-1.4-2.3-2.8-4.3-3-4.3-.3 0-.5 15.1-.5 33.5zm-582.3-19L334 97v47h6v-29c0-16-.1-29-.3-29-.2 0-1.5 2.5-3 5.5zm-62.7 24V144h6v-23.5c0-23.2 0-23.6-2.5-28.5-1.4-2.8-2.8-5-3-5-.3 0-.5 12.8-.5 28.5zM447.1 102l-1 3h23.8l-1-3-1.1-3h-19.6l-1.1 3zm344 0-1 3h23.8l-1-3-1.1-3h-19.6l-1.1 3zM443 112.9c-2.1 3.9-1.5 4.1 15 4.1s17.1-.2 15-4.1c-1-1.7-2.3-1.9-15-1.9s-14 .2-15 1.9zm344 0c-2.1 3.9-1.5 4.1 15 4.1s17.1-.2 15-4.1c-1-1.7-2.3-1.9-15-1.9s-14 .2-15 1.9zM438.1 125l-1 3h41.8l-1-3-1.1-3h-37.6l-1.1 3zm344 0-1 3h41.8l-1-3-1.1-3h-37.6l-1.1 3z"/></svg>